<?xml version="1.0" encoding="UTF-8" standalone="no"?>
<!-- Generator: Adobe Illustrator 16.0.2, SVG Export Plug-In . SVG Version: 6.00 Build 0)  -->

<svg
   version="1.1"
   id="Layer_1"
   inkscape:output_extension="org.inkscape.output.svg.inkscape"
   inkscape:version="1.2.2 (732a01da63, 2022-12-09)"
   sodipodi:docname="France_road_sign_B14_(90).svg"
   sodipodi:version="0.32"
   x="0px"
   y="0px"
   width="570.9931"
   height="570.9931"
   viewBox="0 0 570.9931 570.9931"
   xml:space="preserve"
   xmlns:inkscape="http://www.inkscape.org/namespaces/inkscape"
   xmlns:sodipodi="http://sodipodi.sourceforge.net/DTD/sodipodi-0.dtd"
   xmlns="http://www.w3.org/2000/svg"
   xmlns:svg="http://www.w3.org/2000/svg">
<defs
   id="defs3">
	
	
		<inkscape:perspective
   id="perspective2469"
   inkscape:vp_z="576 : 282.9931 : 1"
   inkscape:vp_x="0 : 282.9931 : 1"
   sodipodi:type="inkscape:persp3d"
   inkscape:vp_y="0 : 999.99999 : 0"
   inkscape:persp3d-origin="288 : 186.9931 : 1">
		</inkscape:perspective>
<inkscape:perspective
   id="perspective2469-6"
   inkscape:vp_z="576 : 288 : 1"
   inkscape:vp_x="0 : 288 : 1"
   sodipodi:type="inkscape:persp3d"
   inkscape:vp_y="0 : 1000 : 0"
   inkscape:persp3d-origin="288 : 192 : 1">
		</inkscape:perspective></defs>
<sodipodi:namedview
   id="base"
   gridtolerance="10.0"
   borderopacity="1.0"
   showgrid="false"
   guidetolerance="10.0"
   bordercolor="#666666"
   inkscape:cy="487.66249"
   pagecolor="#ffffff"
   inkscape:zoom="0.38858842"
   objecttolerance="10.0"
   inkscape:cx="388.58594"
   inkscape:pageopacity="0.0"
   inkscape:pageshadow="2"
   inkscape:window-width="1600"
   inkscape:window-height="837"
   inkscape:current-layer="Layer_1"
   inkscape:window-y="-8"
   inkscape:window-x="-8"
   inkscape:showpageshadow="0"
   inkscape:pagecheckerboard="0"
   inkscape:deskcolor="#d1d1d1"
   inkscape:window-maximized="1">
	</sodipodi:namedview>




<g
   id="g389"
   transform="translate(-6.0634476,-6.0644546)"><circle
     fill="#ffffff"
     stroke="#000000"
     stroke-width="0.9931"
     stroke-linecap="round"
     stroke-linejoin="round"
     cx="291.56"
     cy="291.561"
     r="285"
     id="circle372" /><circle
     fill="#ff0000"
     stroke="#ff0000"
     stroke-width="0.1752"
     stroke-linecap="round"
     stroke-linejoin="round"
     cx="291.56"
     cy="291.561"
     r="272.10101"
     id="circle374" /><circle
     fill="#ffffff"
     stroke="#ff0000"
     stroke-width="0.1752"
     stroke-linecap="round"
     stroke-linejoin="round"
     cx="291.56"
     cy="291.56201"
     r="191.118"
     id="circle376" /></g><path
   d="m 178.66025,174.93223 v 0.3012 c 5.99994,-0.60124 11.68494,-0.90244 17.05385,-0.90244 17.68603,0 31.84356,3.2605 42.47831,9.7781 13.7899,8.52522 23.1855,19.00536 28.18678,31.43928 4.999,12.43508 8.1324,27.02666 9.3956,43.77358 0.52567,6.91958 0.78908,13.99034 0.78908,21.2111 0,10.22934 -0.52796,20.81026 -1.5793,31.73934 -1.79116,18.4522 -6.42254,34.59788 -13.89641,48.43702 -14.10828,21.05994 -33.05752,32.99568 -56.84771,35.80154 -2.00074,0.0984 -3.89612,0.15116 -5.685,0.15116 -45.9003,0 -73.64044,-17.60014 -83.21928,-52.8004 l 43.89956,-11.1318 2.52642,4.51228 c 5.05396,10.33012 15.79179,15.49402 32.21347,15.49402 14.42207,-0.70088 24.05359,-6.41796 28.89798,-17.15004 2.52641,-4.71154 5.10551,-18.95268 7.73728,-42.7211 -22.00361,14.54232 -45.32081,17.65166 -69.95504,9.32802 -23.26681,-9.32802 -37.42549,-23.61726 -42.47831,-42.87228 -0.94712,-5.61514 -1.42125,-11.031 -1.42125,-16.24646 0,-17.2474 5.42045,-32.2902 16.26478,-45.12726 11.89567,-13.13596 26.94877,-20.80796 45.16276,-23.01486 z m 10.57978,90.55688 c 22.42276,0.80282 35.00214,-7.07074 37.74042,-23.61726 -0.31608,-16.04374 -9.42308,-25.06942 -27.31869,-27.07704 -22.52927,-1.80492 -35.26784,5.56588 -38.21456,22.1124 -0.52795,17.1489 8.73823,26.67736 27.79283,28.5819 z"
   id="path400"
   style="stroke-width:1.14524" /><path
   d="m 291.35013,308.81147 c -0.31494,-5.61514 -0.47298,-11.1318 -0.47298,-16.54652 0,-2.70736 0.0516,-5.41586 0.15804,-8.12322 0.31494,-10.62788 1.20938,-20.95914 2.68446,-30.98806 v -1.05248 l 0.63217,-1.35484 1.10517,-10.37936 0.78907,-1.5037 1.57929,-8.42328 0.63218,-0.9036 c 1.57929,-7.22078 4.99785,-15.34172 10.26369,-24.36854 l 4.57984,-6.61838 8.84359,-8.57444 c 9.3681,-7.22078 21.52718,-12.38356 36.47722,-15.49404 4.73788,-0.80168 9.63266,-1.20366 14.68548,-1.20366 h 1.26436 c 7.89532,0.20158 16.15826,1.45562 24.79113,3.761 3.57775,0.40198 9.31657,2.65812 17.21189,6.76954 8.10491,4.81348 15.47571,11.3826 22.10779,19.70624 l 5.05283,7.3708 4.10571,8.27326 1.73733,6.01712 0.47413,0.45238 v 1.5037 c 1.05134,2.10726 1.68237,3.76098 1.89424,4.96464 l 0.63218,0.75242 2.68445,13.38678 0.47413,0.3012 -0.31608,1.95608 0.63217,1.20366 1.57929,16.09528 0.63218,1.5037 -0.47413,0.15004 1.10631,9.4769 -0.31609,0.3012 c 0.41916,1.00324 0.41916,1.6045 0,1.80492 l 0.47413,1.5037 -0.31609,0.45238 0.78908,10.22932 -0.31495,0.30006 0.47414,4.36338 -0.15919,0.3012 v 6.01712 c -0.10538,3.7106 -0.42145,8.17478 -0.94712,13.38678 l -0.78907,5.5659 0.31608,0.3012 -0.78907,1.5037 c -0.31609,3.7106 -1.21282,8.12324 -2.6856,13.2379 l -0.94712,2.85738 -0.15805,1.65488 -4.1057,11.1318 -0.78908,0.60126 c 0,1.00322 -1.36856,4.06104 -4.1057,9.17684 l -7.57924,10.37936 c -8.31788,9.12648 -17.52909,15.7941 -27.63474,20.0063 -6.63212,2.5081 -13.31921,4.16068 -20.0544,4.96464 l -12.15907,0.75244 -2.8425,-0.15118 c -24.00206,-0.60126 -43.37275,-8.02244 -58.11092,-22.26244 -7.26314,-7.72124 -12.73856,-16.69652 -16.42282,-26.92586 -4.21221,-10.42862 -6.79016,-21.41038 -7.73728,-32.94414 z m 78.63944,45.42846 c 6.52562,0.40198 10.57978,0.3012 12.15908,-0.3012 l 0.15804,0.3012 8.68555,-1.80492 c 6.94706,-2.2046 12.26214,-6.96882 15.94869,-14.29036 2.8425,-7.32042 4.94746,-16.0449 6.31718,-26.1746 l 0.78907,-33.99548 -0.47413,-15.9464 -1.5793,-11.88306 -0.63103,-0.60126 -2.05342,-8.42328 -0.63218,-0.3012 c -1.57929,-6.01712 -4.57869,-11.58188 -9.00049,-16.69768 -3.36931,-2.60544 -6.05491,-4.3107 -8.05222,-5.11352 l -9.15967,-2.10726 -9.63152,-0.45122 c -4.31872,-0.0986 -9.10699,0.75242 -14.37054,2.55732 -4.84325,2.2069 -8.89742,6.16716 -12.15907,11.88308 -2.31569,5.31738 -4.42066,11.985 -6.31604,20.00744 l 0.31494,0.90132 c -0.63217,0.50276 -1.00208,2.15878 -1.10516,4.96464 -1.47622,11.73304 -1.63426,28.93348 -0.47413,51.5956 l 2.52641,16.39648 3.31664,11.58302 c 2.4199,6.01712 5.73653,10.37936 9.94874,13.08672 3.78848,2.30882 8.94552,3.91216 15.47456,4.81462 z"
   id="path402"
   style="stroke-width:1.14524" /></svg>
